HIERARCHY
ROOT Pelvis
{
	OFFSET 0.000000 0.000000 0.000000
	CHANNELS 6 Xposition Yposition Zposition Xrotation Yrotation Zrotation
	JOINT LeftUpLeg_virtual
	{
		OFFSET 0.000000 0.000000 0.000000
		CHANNELS 3 Xrotation Yrotation Zrotation
		JOINT LeftUpLeg
		{
			OFFSET 18.735201 -5.666702 -4.541200
			CHANNELS 3 Xrotation Yrotation Zrotation
			JOINT LeftLeg
			{
				OFFSET -0.021200 -31.938179 0.493100
				CHANNELS 3 Xrotation Yrotation Zrotation
				JOINT LeftFoot
				{
					OFFSET 0.021200 -31.938179 -4.336299
					CHANNELS 3 Xrotation Yrotation Zrotation
					JOINT LeftToeBase
					{
						OFFSET 0.943001 -26.722000 15.023500
						CHANNELS 3 Xrotation Yrotation Zrotation
						End Site
						{
							OFFSET 0 0 0
						}
					}
				}
			}
		}
	}
	JOINT RightUpLeg_virtual
	{
		OFFSET 0.000000 0.000000 0.000000
		CHANNELS 3 Xrotation Yrotation Zrotation
		JOINT RightUpLeg
		{
			OFFSET -18.735201 -5.666702 -4.541200
			CHANNELS 3 Xrotation Yrotation Zrotation
			JOINT RightLeg
			{
				OFFSET 0.018946 -31.938133 0.493100
				CHANNELS 3 Xrotation Yrotation Zrotation
				JOINT RightFoot
				{
					OFFSET -0.018946 -31.938126 -4.336299
					CHANNELS 3 Xrotation Yrotation Zrotation
					JOINT RightToeBase
					{
						OFFSET -0.943001 -26.722004 15.023500
						CHANNELS 3 Xrotation Yrotation Zrotation
						End Site
						{
							OFFSET 0 0 0
						}
					}
				}
			}
		}
	}
	JOINT Hips_virtual
	{
		OFFSET 0.000000 0.000000 0.000000
		CHANNELS 3 Xrotation Yrotation Zrotation
		JOINT Hips
		{
			OFFSET -0.000000 -0.000000 -0.000000
			CHANNELS 3 Xrotation Yrotation Zrotation
			JOINT Spine
			{
				OFFSET 0.000000 10.199997 -0.299500
				CHANNELS 3 Xrotation Yrotation Zrotation
				JOINT Spine1
				{
					OFFSET 0.000000 11.900002 -1.516600
					CHANNELS 3 Xrotation Yrotation Zrotation
					JOINT Spine2
					{
						OFFSET 0.000000 13.600006 -2.842500
						CHANNELS 3 Xrotation Yrotation Zrotation
						JOINT Neck_virtual
						{
							OFFSET 0.000000 0.000000 0.000000
							CHANNELS 3 Xrotation Yrotation Zrotation
							JOINT Neck
							{
								OFFSET 0.000000 9.624100 -2.890100
								CHANNELS 3 Xrotation Yrotation Zrotation
								JOINT Head
								{
									OFFSET 0.000000 14.068802 -1.351900
									CHANNELS 3 Xrotation Yrotation Zrotation
									End Site
									{
										OFFSET 0 0 0
									}
								}
							}
						}
						JOINT LeftShoulder_virtual
						{
							OFFSET 0.000000 0.000000 0.000000
							CHANNELS 3 Xrotation Yrotation Zrotation
							JOINT LeftShoulder
							{
								OFFSET 15.263000 10.923401 -0.547700
								CHANNELS 3 Xrotation Yrotation Zrotation
								JOINT LeftArm
								{
									OFFSET 25.438599 -2.830597 -13.032500
									CHANNELS 3 Xrotation Yrotation Zrotation
									JOINT LeftForeArm
									{
										OFFSET 29.960503 0.000000 0.000000
										CHANNELS 3 Xrotation Yrotation Zrotation
										JOINT LeftHand
										{
											OFFSET 27.849251 0.000000 0.000000
											CHANNELS 3 Xrotation Yrotation Zrotation
											End Site
											{
												OFFSET 0 0 0
											}
										}
									}
								}
							}
						}
						JOINT RightShoulder_virtual
						{
							OFFSET 0.000000 0.000000 0.000000
							CHANNELS 3 Xrotation Yrotation Zrotation
							JOINT RightShoulder
							{
								OFFSET -15.263000 10.923401 -0.547700
								CHANNELS 3 Xrotation Yrotation Zrotation
								JOINT RightArm
								{
									OFFSET -25.438599 -2.830597 -13.032500
									CHANNELS 3 Xrotation Yrotation Zrotation
									JOINT RightForeArm
									{
										OFFSET -29.960503 0.000000 0.000000
										CHANNELS 3 Xrotation Yrotation Zrotation
										JOINT RightHand
										{
											OFFSET -27.849251 0.000000 0.000000
											CHANNELS 3 Xrotation Yrotation Zrotation
											End Site
											{
												OFFSET 0 0 0
											}
										}
									}
								}
							}
						}
					}
				}
			}
		}
	}
}
MOTION
Frames: 9
Frame Time: 0.03333333
-1.415801 94.924423 4.341805 0.000000 0.000000 0.000000 -5.480808 -12.103210 -1.139327 1.631700 21.306678 1.178153 16.733277 4.377630 1.238334 -13.271111 -0.908176 -2.043949 0.000000 0.000000 0.000000 -5.480808 -12.103210 -1.139327 -7.305669 -8.066748 -13.300375 13.281821 -12.987507 -0.096872 2.202806 -0.706191 11.123316 0.000000 0.000000 0.000000 -5.480808 -12.103210 -1.139327 0.000000 0.000001 0.000000 12.261128 1.524593 -1.573198 -3.993953 -8.493236 0.813504 0.000000 0.000000 0.000000 -5.969559 4.580065 -2.629903 2.251065 0.004247 0.016559 0.000000 0.000000 0.000000 -5.969559 4.580065 -2.629903 4.233561 -14.085162 -0.897021 5.919386 4.805980 -79.119402 2.144048 -12.162864 0.993675 0.000000 0.000000 0.000000 -5.969559 4.580065 -2.629903 3.456615 7.912194 4.381425 4.870324 0.880825 78.811825 0.216081 17.510303 -0.089632 0.000000 0.000000 0.000000 
-1.452909 94.890732 4.269110 0.000000 0.000000 0.000000 -5.459599 -11.926379 -1.142896 1.215516 21.307728 1.380314 17.218767 4.168123 1.228691 -13.393276 -0.890529 -2.028264 0.000000 0.000000 0.000000 -5.459599 -11.926379 -1.142896 -7.434629 -8.038202 -13.276073 13.542319 -12.985397 -0.105979 2.059247 -0.704909 11.150785 0.000000 0.000000 0.000000 -5.459599 -11.926379 -1.142896 0.000000 0.000001 0.000000 12.284709 1.536980 -1.664377 -4.009647 -8.492099 0.838626 0.000000 0.000000 0.000000 -5.990858 4.581322 -2.607014 2.239398 -0.009843 0.030288 0.000000 0.000000 0.000000 -5.990858 4.581322 -2.607014 4.134859 -13.909764 -1.027313 5.833299 4.715160 -78.638317 2.464683 -12.082304 0.839264 0.000000 0.000000 0.000000 -5.990858 4.581322 -2.607014 3.381226 7.803407 4.537100 5.024065 1.620399 78.436117 0.420642 17.682386 -0.003081 0.000000 0.000000 0.000000 
-1.488020 94.854156 4.189674 0.000000 0.000000 0.000000 -5.402036 -11.735293 -1.157425 0.709554 21.336789 1.622128 17.764219 3.878981 1.215079 -13.532440 -0.841693 -1.989599 0.000000 0.000000 0.000000 -5.402036 -11.735293 -1.157425 -7.566598 -8.016946 -13.221084 13.741360 -13.032523 -0.134026 1.949229 -0.678187 11.182576 0.000000 0.000000 0.000000 -5.402036 -11.735293 -1.157425 0.000000 -0.000001 0.000000 12.262537 1.541680 -1.742140 -4.018683 -8.493298 0.862146 0.000000 0.000000 0.000000 -6.005033 4.580153 -2.583796 2.232179 -0.021781 0.044670 0.000000 0.000000 0.000000 -6.005033 4.580153 -2.583796 4.037699 -13.737899 -1.155442 5.705735 4.632385 -78.161488 2.775911 -11.939536 0.681362 0.000000 0.000000 0.000000 -6.005033 4.580153 -2.583796 3.306760 7.693740 4.690967 5.157375 2.358698 78.058919 0.618397 17.828501 0.086458 0.000000 0.000000 0.000000 
-1.498616 94.806610 4.081575 0.000000 0.000000 0.000000 -5.271593 -11.503565 -1.200242 -0.033945 21.389197 1.947386 18.505950 3.491551 1.198127 -13.731625 -0.767042 -1.903016 0.000000 0.000000 0.000000 -5.271593 -11.503565 -1.200242 -7.724713 -8.002163 -13.117990 13.829862 -13.156240 -0.176821 1.920161 -0.623334 11.215812 0.000000 0.000000 0.000000 -5.271593 -11.503565 -1.200242 0.000000 0.000000 0.000000 12.160773 1.525666 -1.769282 -4.021896 -8.515541 0.871766 0.000000 0.000000 0.000000 -6.003063 4.558937 -2.572199 2.231575 -0.027278 0.055900 0.000000 0.000000 0.000000 -6.003063 4.558937 -2.572199 3.942081 -13.569998 -1.281383 5.619343 4.574187 -77.694720 3.051953 -11.904675 0.522635 0.000000 0.000000 0.000000 -6.003063 4.558937 -2.572199 3.233184 7.582015 4.843428 5.215428 3.086636 77.680561 0.821292 17.890998 0.180010 0.000000 0.000000 0.000000 
-1.498432 94.754852 3.961924 0.000000 0.000000 0.000000 -5.115950 -11.259371 -1.253181 -0.851627 21.465768 2.297502 19.296376 3.032318 1.178425 -13.940694 -0.666334 -1.783090 0.000000 0.000000 0.000000 -5.115950 -11.259371 -1.253181 -7.892717 -7.989699 -13.002576 13.878615 -13.314664 -0.226582 1.921401 -0.548680 11.253842 0.000000 0.000000 0.000000 -5.115950 -11.259371 -1.253181 0.000000 0.000000 0.000000 12.031830 1.501932 -1.777141 -4.022317 -8.545088 0.875560 0.000000 0.000000 0.000000 -5.995743 4.530750 -2.565628 2.233565 -0.035359 0.065073 0.000000 0.000000 0.000000 -5.995743 4.530750 -2.565628 3.847714 -13.403307 -1.405391 5.532353 4.526087 -77.236988 3.314027 -11.916834 0.364361 0.000000 0.000000 0.000000 -5.995743 4.530750 -2.565628 3.160101 7.466490 4.995546 5.215058 3.771391 77.295004 1.040018 17.904625 0.279770 0.000000 0.000000 0.000000 
-1.490561 94.701363 3.836374 0.000000 0.000000 0.000000 -4.959827 -11.018208 -1.307894 -1.671566 21.567579 2.644273 20.077852 2.517732 1.156556 -14.141478 -0.540316 -1.634979 0.000000 0.000000 0.000000 -4.959827 -11.018208 -1.307894 -8.065443 -7.976099 -12.895465 13.924376 -13.484461 -0.277012 1.930813 -0.459391 11.298259 0.000000 0.000000 0.000000 -4.959827 -11.018208 -1.307894 0.000001 -0.000001 0.000000 11.905132 1.477034 -1.778097 -4.022096 -8.575522 0.874850 0.000000 0.000000 0.000000 -5.988544 4.501614 -2.562507 2.236504 -0.045851 0.073912 0.000000 0.000000 0.000000 -5.988544 4.501614 -2.562507 3.754464 -13.236867 -1.527661 5.434196 4.482694 -76.789331 3.569938 -11.960150 0.207087 0.000000 0.000000 0.000000 -5.988544 4.501614 -2.562507 3.087212 7.345052 5.148270 5.172761 4.386046 76.913333 1.261177 17.872356 0.396959 0.000000 0.000000 0.000000 
-1.469228 94.646111 3.702980 0.000000 0.000000 0.000000 -4.821271 -10.793166 -1.360336 -2.461366 21.683218 3.021931 20.816398 3.276093 1.205854 -14.342759 -1.637760 -1.905243 0.000000 0.000000 0.000000 -4.821271 -10.793166 -1.360336 -8.245818 -7.957136 -12.815514 13.991809 -13.645436 -0.321848 1.942277 -0.359033 11.351490 0.000000 0.000000 0.000000 -4.821271 -10.793166 -1.360336 0.000000 -0.000001 0.000000 11.804689 1.453428 -1.773021 -4.021571 -8.603173 0.869361 0.000000 0.000000 0.000000 -5.990045 4.474534 -2.565252 2.242372 -0.060969 0.083569 0.000000 0.000000 0.000000 -5.990045 4.474534 -2.565252 3.662325 -13.070530 -1.648167 5.339322 4.445793 -76.353005 3.819322 -12.052622 0.052223 0.000000 0.000000 0.000000 -5.990045 4.474534 -2.565252 3.014128 7.214281 5.302226 5.073866 4.893758 76.538362 1.483908 17.779551 0.540806 0.000000 0.000000 0.000000 
-1.418584 94.587997 3.554008 0.000000 0.000000 0.000000 -4.733039 -10.609238 -1.404482 -3.168065 21.840235 3.302357 21.532754 3.059627 1.199949 -14.525263 -1.797135 -1.811225 0.000000 0.000000 0.000000 -4.733039 -10.609238 -1.404482 -8.443557 -7.925521 -12.797281 14.120492 -13.762778 -0.354073 1.954538 -0.251372 11.420972 0.000000 0.000000 0.000000 -4.733039 -10.609238 -1.404482 0.000000 0.000001 0.000000 11.780023 1.434734 -1.758951 -4.022116 -8.622654 0.852068 0.000000 0.000000 0.000000 -5.994140 4.454241 -2.580639 2.247265 -0.077130 0.092983 0.000000 0.000000 0.000000 -5.994140 4.454241 -2.580639 3.571352 -12.904666 -1.766915 5.291175 4.424971 -75.927101 4.056939 -12.250118 -0.096623 0.000000 0.000000 0.000000 -5.994140 4.454241 -2.580639 2.941310 7.072527 5.454286 4.928551 5.293706 76.183479 1.714164 17.630289 0.713564 0.000000 0.000000 0.000000 
-1.344079 94.525185 3.386627 0.000000 0.000000 0.000000 -4.634013 -10.452590 -1.444618 -3.893078 22.024990 3.561296 22.249201 2.846559 1.194438 -14.702558 -1.961014 -1.690008 0.000000 0.000000 0.000000 -4.634013 -10.452590 -1.444618 -8.681816 -7.883427 -12.812119 14.251580 -13.862149 -0.369890 1.994758 -0.135931 11.491747 0.000000 0.000000 0.000000 -4.634013 -10.452590 -1.444618 0.000000 0.000000 0.000000 11.755357 1.415456 -1.762349 -4.019514 -8.647275 0.852223 0.000000 0.000000 0.000000 -5.999136 4.429884 -2.578217 2.250724 -0.094242 0.100314 0.000000 0.000000 0.000000 -5.999136 4.429884 -2.578217 3.481329 -12.737610 -1.884067 5.205357 4.394298 -75.517488 4.278822 -12.401800 -0.251138 0.000000 0.000000 0.000000 -5.999136 4.429884 -2.578217 2.869878 6.911948 5.597215 4.698837 5.508277 75.841860 1.984556 17.408120 0.926951 0.000000 0.000000 0.000000 
